<svg id="Capa_1" data-name="Capa 1" xmlns="http://www.w3.org/2000/svg" viewBox="0 0 390.13 114.89"><defs><style>.cls-1{fill:#fff;}.cls-2{fill:#1ca743;}</style></defs><path class="cls-1" d="M9.14,75.24v-38q.06-7.37,7.37-7.36h27V12.66H60.68V82.6H16.51Q9.15,82.6,9.14,75.24Zm19.64-7.36H43.5V44.56H28.78A2.2,2.2,0,0,0,26.32,47v18.4A2.17,2.17,0,0,0,28.78,67.88Z"/><path class="cls-1" d="M87.67,24.93H70.5V12.66H87.67ZM70.5,29.84H87.67V82.6H70.5Z"/><path class="cls-1" d="M104.85,29.84H149v65q0,7.32-7.37,7.36H102.4l7.36-14.72h19.63a2.17,2.17,0,0,0,2.46-2.45V82.6h-27q-7.3,0-7.36-7.36v-38Q97.49,29.83,104.85,29.84ZM114.67,47v18.4a2.2,2.2,0,0,0,2.45,2.46h14.73V44.56H117.12A2.17,2.17,0,0,0,114.67,47Z"/><path class="cls-1" d="M176,24.93H158.84V12.66H176Zm-17.18,4.91H176V82.6H158.84Z"/><path class="cls-2" d="M214.06,82.6V67.88h15.41L219,39.31,203,82.6H183.38l25.77-69.94h19.63L254.55,82.6Z"/><path class="cls-1" d="M279.09,50.4V82.6H261.91V12.66h46.63q7.36,0,7.36,7.36V45.79q0,7.37-6.13,7.36h-7L319.58,82.6H297.5Zm19.63-2.16V29.84a2.17,2.17,0,0,0-2.45-2.46H279.09V48.24Z"/><path class="cls-1" d="M350.26,27.38H329.45l-.05-14.72H381V27.38H367.44V82.6H350.26Z"/></svg>