<?xml version="1.0" encoding="utf-8"?>
<!-- Generator: Adobe Illustrator 25.4.1, SVG Export Plug-In . SVG Version: 6.00 Build 0)  -->
<svg version="1.1" id="Capa_1" xmlns="http://www.w3.org/2000/svg" xmlns:xlink="http://www.w3.org/1999/xlink" x="0px" y="0px"
	 viewBox="0 0 24 24" style="enable-background:new 0 0 24 24;" xml:space="preserve">
<style type="text/css">
	.st0{fill-rule:evenodd;clip-rule:evenodd;fill:#1CA643;}
</style>
<path class="st0" d="M2.1,10.8c0.5-4.5,4.2-8.2,8.8-8.7c6-0.7,11.1,4,11.1,10c0,4.2-2.6,7.8-6.3,9.3c-0.4,0.1-0.7-0.2-0.7-0.5v-2.6
	c0-0.9-0.4-1.8-1-2.3c2.3-0.5,4-1.8,4-4c0-1.2-0.5-2.2-1.2-3C16.9,8.8,17,8.4,17,7.6c0-0.4,0-1-0.2-1.6c0,0-1.5,0-2.8,1.3
	C13.4,7.1,12.7,7,12,7s-1.4,0.1-1.9,0.3C8.7,6,7.3,6,7.3,6C7,6.6,7,7.2,7,7.6C7,8.3,7.1,8.8,7.2,9C6.5,9.8,6,10.9,6,12
	c0,2.2,1.7,3.5,4,4c-0.6,0.4-0.9,1.1-1,1.8C8.8,17.9,8.5,18,8.1,18c-0.3,0-0.9-0.2-1.4-1c-0.2-0.3-0.7-1-1.3-1C5.3,16,5,16,5,16.2
	c0,0.1,0.1,0.1,0.2,0.1c0,0,0.1,0,0.2,0.1c0.3,0.3,0.5,0.6,0.6,1c0.1,0.7,0.7,1.9,2.1,1.9c0.5,0,0.9-0.1,0.9-0.1v1.6
	c0,0.4-0.3,0.6-0.6,0.5C4.3,19.7,1.6,15.5,2.1,10.8z"/>
</svg>
