<?xml version="1.0" encoding="utf-8"?>
<!-- Generator: Adobe Illustrator 25.4.1, SVG Export Plug-In . SVG Version: 6.00 Build 0)  -->
<svg version="1.1" id="Capa_1" xmlns="http://www.w3.org/2000/svg" xmlns:xlink="http://www.w3.org/1999/xlink" x="0px" y="0px"
	 viewBox="0 0 24 24" style="enable-background:new 0 0 24 24;" xml:space="preserve">
<style type="text/css">
	.st0{fill-rule:evenodd;clip-rule:evenodd;fill:#1CA643;}
</style>
<path class="st0" d="M18.7,5.3C19.7,5.1,21.2,4.5,22,4c-0.3,0.9-1.5,2.1-2.3,2.6C20.5,6.5,21.3,6.3,22,6c-0.5,0.8-1.2,1.5-2,2.1
	c0,0.1,0,0.2,0,0.3c0,0,0,0,0,0c0,0,0,0,0,0c0,0,0,0,0,0c0,0,0,0,0,0c0,0.2,0,0.4,0,0.4c0,5.3-4.2,11-11.7,11c-2.3,0-4.6-0.9-6.3-2
	h1c2.8,0,3.8-0.4,5.2-1.5c-1.8,0-3.6-0.9-4.1-2.5c0.2,0,1.2,0.2,1.4,0.2c0.4,0,1.1,0,1.5-0.2C5.1,13.5,3,12.2,3,10.2v-0.1
	c0.6,0.5,1.2,0.6,1.8,0.6c0.4,0,0.7-0.1,1-0.1C4.1,9.8,3,8.4,3,7c0-0.7,0.1-1.5,0.3-2C5.1,7.2,7.6,9,11,9c0-0.1,0-0.2,0-0.4
	c0,0,0,0,0,0c0,0,0-0.1,0-0.1C11,6,13,4,15.5,4C16.7,4,17.8,4.5,18.7,5.3C18.7,5.3,18.7,5.3,18.7,5.3C18.7,5.3,18.7,5.3,18.7,5.3z"
	/>
</svg>
