<?xml version="1.0" encoding="utf-8"?>
<!-- Generator: Adobe Illustrator 25.4.1, SVG Export Plug-In . SVG Version: 6.00 Build 0)  -->
<svg version="1.1" id="Capa_1" xmlns="http://www.w3.org/2000/svg" xmlns:xlink="http://www.w3.org/1999/xlink" x="0px" y="0px"
	 viewBox="0 0 24 24" style="enable-background:new 0 0 24 24;" xml:space="preserve">
<style type="text/css">
	.st0{fill-rule:evenodd;clip-rule:evenodd;fill:#1CA643;}
</style>
<path class="st0" d="M3,8c0-2.8,2.2-5,5-5h8c2.8,0,5,2.2,5,5v8c0,2.8-2.2,5-5,5H8c-2.8,0-5-2.2-5-5V8z M19,6c0-0.6-0.4-1-1-1
	s-1,0.4-1,1s0.4,1,1,1S19,6.6,19,6z M17,12c0-2.8-2.2-5-5-5s-5,2.2-5,5s2.2,5,5,5S17,14.8,17,12z M9.9,9.9C10.4,9.3,11.2,9,12,9
	s1.6,0.3,2.1,0.9c0.6,0.6,0.9,1.3,0.9,2.1s-0.3,1.6-0.9,2.1S12.8,15,12,15s-1.6-0.3-2.1-0.9C9.3,13.6,9,12.8,9,12S9.3,10.4,9.9,9.9z
	"/>
</svg>
